<svg width="270" height="64" viewBox="0 0 270 64" fill="none" xmlns="http://www.w3.org/2000/svg">
<path d="M58.2129 21.9248H62.5928C62.5049 23.3604 62.1094 24.6348 61.4062 25.748C60.7129 26.8613 59.7412 27.7305 58.4912 28.3555C57.251 28.9805 55.7568 29.293 54.0088 29.293C52.6416 29.293 51.416 29.0586 50.332 28.5898C49.248 28.1113 48.3203 27.4277 47.5488 26.5391C46.7871 25.6504 46.2061 24.5762 45.8057 23.3164C45.4053 22.0566 45.2051 20.6455 45.2051 19.083V17.6035C45.2051 16.041 45.4102 14.6299 45.8203 13.3701C46.2402 12.1006 46.8359 11.0215 47.6074 10.1328C48.3887 9.24414 49.3213 8.56055 50.4053 8.08203C51.4893 7.60352 52.7002 7.36426 54.0381 7.36426C55.8154 7.36426 57.3145 7.68652 58.5352 8.33105C59.7656 8.97559 60.7178 9.86426 61.3916 10.9971C62.0752 12.1299 62.4854 13.4189 62.6221 14.8643H58.2275C58.1787 14.0049 58.0078 13.2773 57.7148 12.6816C57.4219 12.0762 56.9775 11.6221 56.3818 11.3193C55.7959 11.0068 55.0146 10.8506 54.0381 10.8506C53.3057 10.8506 52.666 10.9873 52.1191 11.2607C51.5723 11.5342 51.1133 11.9492 50.7422 12.5059C50.3711 13.0625 50.0928 13.7656 49.9072 14.6152C49.7314 15.4551 49.6436 16.4414 49.6436 17.5742V19.083C49.6436 20.1865 49.7266 21.1582 49.8926 21.998C50.0586 22.8281 50.3125 23.5312 50.6543 24.1074C51.0059 24.6738 51.4551 25.1035 52.002 25.3965C52.5586 25.6797 53.2275 25.8213 54.0088 25.8213C54.9268 25.8213 55.6836 25.6748 56.2793 25.3818C56.875 25.0889 57.3291 24.6543 57.6416 24.0781C57.9639 23.502 58.1543 22.7842 58.2129 21.9248ZM74.1504 11.3193L68.3496 29H63.6768L71.6016 7.67188H74.5752L74.1504 11.3193ZM78.9697 29L73.1543 11.3193L72.6855 7.67188H75.6885L83.6572 29H78.9697ZM78.7061 21.0605V24.5029H67.4414V21.0605H78.7061ZM99.3457 25.5723V29H88.6084V25.5723H99.3457ZM90.0293 7.67188V29H85.6348V7.67188H90.0293ZM116.177 25.5723V29H104.824V25.5723H116.177ZM106.26 7.67188V29H101.865V7.67188H106.26ZM114.697 16.3584V19.6982H104.824V16.3584H114.697ZM116.162 7.67188V11.1143H104.824V7.67188H116.162ZM136.099 7.67188V29H131.704L123.135 14.7031V29H118.74V7.67188H123.135L131.719 21.9834V7.67188H136.099ZM146.47 29H141.826L141.855 25.5723H146.47C147.622 25.5723 148.594 25.3135 149.385 24.7959C150.176 24.2686 150.771 23.502 151.172 22.4961C151.582 21.4902 151.787 20.2744 151.787 18.8486V17.8086C151.787 16.7148 151.67 15.7529 151.436 14.9229C151.211 14.0928 150.874 13.3945 150.425 12.8281C149.976 12.2617 149.424 11.8369 148.77 11.5537C148.115 11.2607 147.363 11.1143 146.514 11.1143H141.738V7.67188H146.514C147.939 7.67188 149.243 7.91602 150.425 8.4043C151.616 8.88281 152.646 9.57129 153.516 10.4697C154.385 11.3682 155.054 12.4424 155.522 13.6924C156.001 14.9326 156.24 16.3145 156.24 17.8379V18.8486C156.24 20.3623 156.001 21.7441 155.522 22.9941C155.054 24.2441 154.385 25.3184 153.516 26.2168C152.656 27.1055 151.626 27.7939 150.425 28.2822C149.233 28.7607 147.915 29 146.47 29ZM144.316 7.67188V29H139.922V7.67188H144.316ZM167.783 11.3193L161.982 29H157.31L165.234 7.67188H168.208L167.783 11.3193ZM172.603 29L166.787 11.3193L166.318 7.67188H169.321L177.29 29H172.603ZM172.339 21.0605V24.5029H161.074V21.0605H172.339ZM165.308 6.4707L168.179 1.95898H172.764L168.735 6.4707H165.308ZM179.268 7.67188H187.222C188.853 7.67188 190.254 7.91602 191.426 8.4043C192.607 8.89258 193.516 9.61523 194.15 10.5723C194.785 11.5293 195.103 12.7061 195.103 14.1025C195.103 15.2451 194.907 16.2266 194.517 17.0469C194.136 17.8574 193.594 18.5361 192.891 19.083C192.197 19.6201 191.382 20.0498 190.444 20.3721L189.053 21.1045H182.139L182.109 17.6768H187.251C188.022 17.6768 188.662 17.54 189.17 17.2666C189.678 16.9932 190.059 16.6123 190.312 16.124C190.576 15.6357 190.708 15.0693 190.708 14.4248C190.708 13.7412 190.581 13.1504 190.327 12.6523C190.073 12.1543 189.688 11.7734 189.17 11.5098C188.652 11.2461 188.003 11.1143 187.222 11.1143H183.662V29H179.268V7.67188ZM191.191 29L186.328 19.4932L190.972 19.4639L195.894 28.7949V29H191.191ZM203.159 7.67188V29H198.779V7.67188H203.159ZM224.795 17.8379V18.8486C224.795 20.4697 224.575 21.9248 224.136 23.2139C223.696 24.5029 223.076 25.6016 222.275 26.5098C221.475 27.4082 220.518 28.0967 219.404 28.5752C218.301 29.0537 217.075 29.293 215.728 29.293C214.39 29.293 213.164 29.0537 212.051 28.5752C210.947 28.0967 209.99 27.4082 209.18 26.5098C208.369 25.6016 207.739 24.5029 207.29 23.2139C206.851 21.9248 206.631 20.4697 206.631 18.8486V17.8379C206.631 16.207 206.851 14.752 207.29 13.4727C207.729 12.1836 208.35 11.085 209.15 10.1768C209.961 9.26855 210.918 8.5752 212.021 8.09668C213.135 7.61816 214.36 7.37891 215.698 7.37891C217.046 7.37891 218.271 7.61816 219.375 8.09668C220.488 8.5752 221.445 9.26855 222.246 10.1768C223.057 11.085 223.682 12.1836 224.121 13.4727C224.57 14.752 224.795 16.207 224.795 17.8379ZM220.356 18.8486V17.8086C220.356 16.6758 220.254 15.6797 220.049 14.8203C219.844 13.9609 219.541 13.2383 219.141 12.6523C218.74 12.0664 218.252 11.627 217.676 11.334C217.1 11.0312 216.44 10.8799 215.698 10.8799C214.956 10.8799 214.297 11.0312 213.721 11.334C213.154 11.627 212.671 12.0664 212.271 12.6523C211.88 13.2383 211.582 13.9609 211.377 14.8203C211.172 15.6797 211.069 16.6758 211.069 17.8086V18.8486C211.069 19.9717 211.172 20.9678 211.377 21.8369C211.582 22.6963 211.885 23.4238 212.285 24.0195C212.686 24.6055 213.174 25.0498 213.75 25.3525C214.326 25.6553 214.985 25.8066 215.728 25.8066C216.47 25.8066 217.129 25.6553 217.705 25.3525C218.281 25.0498 218.765 24.6055 219.155 24.0195C219.546 23.4238 219.844 22.6963 220.049 21.8369C220.254 20.9678 220.356 19.9717 220.356 18.8486Z" fill="url(#paint0_linear_122_239)"/>
<path d="M116.186 63.9981C114.26 63.9981 112.236 63.6331 110.65 62.754V47.2441C112.211 46.3899 114.235 46 116.186 46C118.137 46 120.113 46.365 121.672 47.2441V53.195H117.745V49.1456C117.283 48.9507 116.721 48.878 116.161 48.878C115.601 48.878 115.087 48.9507 114.6 49.1456V60.8525C115.062 61.0475 115.599 61.1201 116.161 61.1201C116.723 61.1201 117.258 61.0475 117.745 60.8525V56.805H121.672V62.7559C120.136 63.6101 118.112 63.9752 116.186 64V63.9981Z" fill="#F7DD43"/>
<path d="M129.038 63.9981C126.964 63.9981 124.965 63.5585 123.379 62.6565V47.3167C124.94 46.4395 126.941 46 129.038 46C131.134 46 133.085 46.4147 134.647 47.3167V62.6565C133.11 63.5585 131.086 63.9732 129.038 63.9981ZM130.721 49.1952C130.259 49.0003 129.697 48.9029 129.015 48.9029C128.332 48.9029 127.795 49.0003 127.331 49.1952V60.7799C127.794 60.9997 128.355 61.0971 129.015 61.0971C129.674 61.0971 130.234 60.9997 130.721 60.7799V49.1952Z" fill="#F7DD43"/>
<path d="M141.499 57.4127H140.45V63.7783H136.475V46.2198H141.499C143.89 46.2198 145.694 46.7071 147.108 47.7066V55.9259C145.719 56.9024 143.888 57.4127 141.499 57.4127ZM143.158 49.243C142.793 48.9755 142.304 48.8532 141.475 48.8532H140.401V54.7793H141.475C142.279 54.7793 142.766 54.657 143.158 54.4143V49.243Z" fill="#F7DD43"/>
<path d="M155.423 63.7783V57.4127H152.497V63.7783H148.547V47.2919C149.986 46.4376 152.01 46 153.961 46C155.912 46 157.911 46.4395 159.35 47.2919V63.7783H155.423ZM155.423 49.0481C155.008 48.8532 154.496 48.7557 153.959 48.7557C153.422 48.7557 152.91 48.8532 152.495 49.0481V54.6321H155.421V49.0481H155.423Z" fill="#F7DD43"/>
<defs>
<linearGradient id="paint0_linear_122_239" x1="135" y1="0" x2="135" y2="38" gradientUnits="userSpaceOnUse">
<stop stop-color="white"/>
<stop offset="1" stop-color="#D9D9D9" stop-opacity="0.8"/>
</linearGradient>
</defs>
</svg>
